<svg width="45" height="45" viewBox="0 0 45 45" fill="none" xmlns="http://www.w3.org/2000/svg">
<rect width="45" height="45" rx="10" fill="#94BB1E"/>
<path d="M27.7573 22.5017C26.8143 22.5017 25.927 21.9995 25.4471 21.196L21.859 15.2475L18.2765 21.196C17.7911 22.0051 16.9038 22.5073 15.9607 22.5073C15.7096 22.5073 15.4585 22.4738 15.2186 22.4013L7.5737 20.2138V30.1466C7.5737 30.9669 8.13172 31.6812 8.92411 31.8765L20.9885 34.8954C21.5577 35.0349 22.1548 35.0349 22.7184 34.8954L34.7939 31.8765C35.5863 31.6756 36.1444 30.9613 36.1444 30.1466V20.2138L28.4995 22.3957C28.2595 22.4682 28.0084 22.5017 27.7573 22.5017ZM39.6208 16.2407L36.747 10.5043C36.574 10.1583 36.2002 9.95742 35.8151 10.0076L21.859 11.7877L26.9761 20.2752C27.1881 20.6268 27.6122 20.7942 28.0084 20.6826L39.0516 17.5298C39.6041 17.3679 39.8719 16.7541 39.6208 16.2407V16.2407ZM6.97103 10.5043L4.09723 16.2407C3.84054 16.7541 4.11397 17.3679 4.66083 17.5242L15.7041 20.677C16.1003 20.7886 16.5243 20.6212 16.7364 20.2696L21.859 11.7877L7.89735 10.0076C7.51231 9.963 7.14402 10.1583 6.97103 10.5043V10.5043Z" fill="white"/>
</svg>
